<svg xmlns="http://www.w3.org/2000/svg" viewBox="0 0 192 192" fill="none">
  <rect width="192" height="192" rx="24" fill="#0066CC"/>
  <path d="M96 48C78.3269 48 64 62.3269 64 80C64 88.8366 67.2143 96.9394 72.5736 103.211L88 120V132C88 136.418 91.5817 140 96 140C100.418 140 104 136.418 104 132V120L119.426 103.211C124.786 96.9394 128 88.8366 128 80C128 62.3269 113.673 48 96 48Z" fill="white"/>
  <path d="M96 68C96 65.7909 94.2091 64 92 64C89.7909 64 88 65.7909 88 68V80C88 82.2091 89.7909 84 92 84C94.2091 84 96 82.2091 96 80V68Z" fill="#0066CC"/>
  <path d="M104 68C104 65.7909 102.209 64 100 64C97.7909 64 96 65.7909 96 68V80C96 82.2091 97.7909 84 100 84C102.209 84 104 82.2091 104 80V68Z" fill="#0066CC"/>
  <circle cx="144" cy="48" r="24" fill="#FF4444"/>
  <path d="M144 36V60M132 48H156" stroke="white" stroke-width="4" stroke-linecap="round"/>
</svg>